<svg xmlns="http://www.w3.org/2000/svg" viewBox="0 0 25.5 23.9"><defs><style>.cls-1,.cls-2{fill:none;stroke:#202020;stroke-miterlimit:10;stroke-width:1.5px;}.cls-2{stroke-linecap:round;}</style></defs><title>자산 1</title><g id="레이어_2" data-name="레이어 2"><g id="Layer_1" data-name="Layer 1"><circle class="cls-1" cx="12.75" cy="14.75" r="2.8"/><path class="cls-1" d="M12.75,17.55A4.84,4.84,0,0,0,8,22.35v.8h9.6v-.8A4.84,4.84,0,0,0,12.75,17.55Z"/><circle class="cls-1" cx="20.75" cy="3.15" r="2.4"/><path class="cls-1" d="M24.75,10.35c0-3-1.79-4.8-4-4.8s-4,1.79-4,4.8Z"/><circle class="cls-1" cx="4.75" cy="3.15" r="2.4"/><path class="cls-1" d="M8.75,10.35c0-3-1.79-4.8-4-4.8s-4,1.79-4,4.8Z"/><line class="cls-2" x1="4.75" y1="12.75" x2="7.95" y2="15.95"/><line class="cls-2" x1="20.75" y1="12.75" x2="17.55" y2="15.95"/><line class="cls-2" x1="9.55" y1="4.75" x2="15.95" y2="4.75"/></g></g></svg>