<svg xmlns="http://www.w3.org/2000/svg" viewBox="0 0 25.5 25.48"><defs><style>.cls-1,.cls-2{fill:none;stroke:#202020;stroke-miterlimit:10;stroke-width:1.5px;}.cls-2{stroke-linecap:round;}</style></defs><title>자산 1</title><g id="레이어_2" data-name="레이어 2"><g id="Layer_1" data-name="Layer 1"><path class="cls-1" d="M14.77,19.93H.75s0-2.8,3.77-3.52c3.23-.62,3.24-1.6,3.24-2.24v-.65a5.82,5.82,0,0,1-1.68-2.8h0c-1,0-1.22-2-1.22-2.33s0-1.52,1-1.52C5.16,4.31,5.29,2,7.05,2,11.33-1,17,1.73,14.9,6.87c1,0,1,1.22,1,1.52s-.23,2.33-1.22,2.33h0a5.82,5.82,0,0,1-1.69,2.82v.64c0,.43-.12,1.3,1.61,1.92"/><circle class="cls-1" cx="18.35" cy="18.33" r="4"/><line class="cls-2" x1="21.18" y1="21.16" x2="24.75" y2="24.73"/></g></g></svg>