<svg xmlns="http://www.w3.org/2000/svg" viewBox="0 0 25.5 24.7"><defs><style>.cls-1{fill:none;stroke:#202020;stroke-miterlimit:10;stroke-width:1.5px;}</style></defs><title>자산 1</title><g id="레이어_2" data-name="레이어 2"><g id="Layer_1" data-name="Layer 1"><circle class="cls-1" cx="12.75" cy="4.75" r="2.4"/><path class="cls-1" d="M16.35,9.55H9.15A1.2,1.2,0,0,0,8,10.75v5.6a1.2,1.2,0,0,0,1.2,1.2h1.2v5.2a1.2,1.2,0,0,0,1.2,1.2H14a1.2,1.2,0,0,0,1.2-1.2v-5.2h1.2a1.2,1.2,0,0,0,1.2-1.2v-5.6A1.2,1.2,0,0,0,16.35,9.55Z"/><circle class="cls-1" cx="19.95" cy="3.15" r="2.4"/><path class="cls-1" d="M17.55,16v5.2a1.2,1.2,0,0,0,1.2,1.2h2.4a1.2,1.2,0,0,0,1.2-1.2V16h1.2a1.2,1.2,0,0,0,1.2-1.2V9.15A1.2,1.2,0,0,0,23.55,8h-7.2a1.2,1.2,0,0,0-1.2,1.2v.4"/><circle class="cls-1" cx="5.55" cy="3.15" r="2.4"/><path class="cls-1" d="M10.35,9.15A1.2,1.2,0,0,0,9.15,8H2a1.2,1.2,0,0,0-1.2,1.2v5.6A1.2,1.2,0,0,0,2,16h1.2v5.2a1.2,1.2,0,0,0,1.2,1.2h2.4A1.2,1.2,0,0,0,8,21.15V16"/></g></g></svg>